# xmcd CD database file
#
# Track frame offsets:
#	150
#	26200
#	52150
#	73737
#	96762
#	108687
#	131100
#	146725
#	160455
#	182032
#	206775
#	221075
#	241612
#
# Disc length: 3523 seconds
#
# Revision: 0
# Processed by: cddbd v1.4PL0 Copyright (c) Steve Scherf et al.
# Submitted via: CDex 1.50
#
DISCID=d20dc10d
DTITLE=Jacky terrasson and Cassandra Wilson - Rendezvous
DYEAR=1997
DGENRE=Jazz
TTITLE0=Old Devil Moon
TTITLE1=Chan's Song
TTITLE2=Tennessee Waltz
TTITLE3=Little Boy Lost
TTITLE4=Autumn Leaves
TTITLE5=It Might As Well Be Spring
TTITLE6=My Ship
TTITLE7=I Remember You
TTITLE8=Tea For Two
TTITLE9=If Ever I Would Leave You
TTITLE10=Chicago 1987
TTITLE11=Come Rain Or Come Shine
TTITLE12=Medieval Blues
EXTD=YEAR: 1997
EXTT0=
EXTT1=
EXTT2=
EXTT3=
EXTT4=
EXTT5=
EXTT6=
EXTT7=
EXTT8=
EXTT9=
EXTT10=
EXTT11=
EXTT12=
PLAYORDER=
